<svg width="192" height="35" viewBox="0 0 192 35" fill="none" xmlns="http://www.w3.org/2000/svg">
<g id="dark_theme_site_logo 1" clip-path="url(#clip0_1_4)">
<g id="Clip path group">
<mask id="mask0_1_4" style="mask-type:luminance" maskUnits="userSpaceOnUse" x="0" y="0" width="192" height="35">
<g id="clip0_311_41129">
<path id="Vector" d="M0 0H192V35H0V0Z" fill="white"/>
</g>
</mask>
<g mask="url(#mask0_1_4)">
<g id="Group">
<path id="Vector_2" fill-rule="evenodd" clip-rule="evenodd" d="M0 17.5C0 7.846 7.846 0 17.5 0C27.154 0 34.956 7.846 35 17.5C35 27.154 27.154 35 17.5 35C7.846 35 0 27.154 0 17.5ZM24.014 28.796C24.7952 28.3401 25.5233 27.7988 26.185 27.182C28.858 24.788 30.528 21.336 30.528 17.55C30.528 10.368 24.682 4.522 17.5 4.522C10.318 4.522 4.472 10.368 4.472 17.55C4.472 21.391 6.142 24.843 8.815 27.237C9.483 27.794 10.207 28.351 10.986 28.797C12.9668 29.9374 15.2144 30.5326 17.5 30.522C19.894 30.522 22.121 29.91 24.014 28.796Z" fill="#D16527"/>
<path id="Vector_3" fill-rule="evenodd" clip-rule="evenodd" d="M16.354 15.428L16.276 15.455C16.1889 15.4923 16.0957 15.513 16.001 15.516C15.8374 15.5203 15.6771 15.4689 15.5464 15.3704C15.4157 15.2718 15.3222 15.1319 15.2812 14.9734C15.2403 14.8149 15.2542 14.6472 15.3209 14.4977C15.3875 14.3481 15.5028 14.2256 15.648 14.15C15.8177 14.0634 16.0147 14.0472 16.1962 14.1048C16.3778 14.1625 16.5294 14.2894 16.618 14.458C16.839 14.767 16.707 15.208 16.354 15.428ZM14.371 18.117C14.767 18.117 15.12 17.808 15.12 17.412C15.164 17.015 14.855 16.662 14.37 16.662C13.974 16.662 13.621 16.971 13.621 17.368C13.621 17.764 13.93 18.117 14.326 18.117H14.37H14.371ZM15.869 20.85C15.9939 20.8513 16.117 20.8193 16.2254 20.7572C16.3339 20.6952 16.4238 20.6054 16.486 20.497C16.706 20.145 16.574 19.704 16.266 19.483C15.913 19.263 15.473 19.351 15.252 19.703C15.032 20.057 15.12 20.497 15.472 20.718C15.5881 20.8009 15.7264 20.8469 15.869 20.85ZM19.229 20.877L19.308 20.85C19.3929 20.8076 19.4679 20.7477 19.528 20.6743C19.5882 20.6009 19.6322 20.5157 19.6571 20.4241C19.682 20.3325 19.6873 20.2367 19.6726 20.143C19.658 20.0492 19.6237 19.9596 19.572 19.88C19.4834 19.7114 19.3318 19.5845 19.1502 19.5268C18.9687 19.4692 18.7717 19.4854 18.602 19.572C18.4568 19.6476 18.3415 19.7701 18.2749 19.9197C18.2082 20.0692 18.1943 20.2369 18.2352 20.3954C18.2762 20.5539 18.3697 20.6938 18.5004 20.7924C18.6311 20.8909 18.7914 20.9423 18.955 20.938C19.0496 20.9352 19.1428 20.9148 19.23 20.878L19.229 20.877ZM19.131 15.604C18.9884 15.6009 18.8501 15.5549 18.734 15.472C18.382 15.252 18.294 14.811 18.514 14.458C18.734 14.106 19.175 14.018 19.528 14.238H19.572C19.925 14.458 20.012 14.899 19.792 15.252C19.616 15.472 19.351 15.604 19.131 15.604ZM19.837 17.588C19.837 17.985 20.145 18.338 20.586 18.338C20.7716 18.3329 20.9481 18.2569 21.0793 18.1256C21.2104 17.9942 21.2862 17.8176 21.291 17.632C21.291 17.235 20.983 16.882 20.586 16.882C20.189 16.882 19.837 17.192 19.837 17.588Z" fill="#D16527"/>
<path id="Vector_4" d="M17.5 18.734C18.1815 18.734 18.734 18.1815 18.734 17.5C18.734 16.8185 18.1815 16.266 17.5 16.266C16.8185 16.266 16.266 16.8185 16.266 17.5C16.266 18.1815 16.8185 18.734 17.5 18.734Z" fill="#D16527"/>
<path id="Vector_5" fill-rule="evenodd" clip-rule="evenodd" d="M8.42 16.09L10.976 17.94C11.946 18.646 12.342 19.88 11.946 20.938L10.976 23.936C9.301 22.305 8.287 20.012 8.287 17.456C8.287 17.015 8.331 16.53 8.419 16.089L8.42 16.09ZM8.992 17.456C8.98894 19.3235 9.60979 21.1386 10.756 22.613L11.108 21.511C10.4345 20.4674 10.04 19.2686 9.962 18.029L8.992 17.324V17.456ZM12.475 13.357H9.3C9.95568 12.0609 10.9083 10.938 12.0803 10.0799C13.2522 9.22175 14.6104 8.65267 16.044 8.41901L15.074 11.461C14.678 12.607 13.664 13.357 12.474 13.357H12.475ZM11.637 12.651C12.43 11.681 13.488 10.932 14.679 10.447L15.075 9.30101C13.2116 9.86604 11.5953 11.0472 10.491 12.651H11.637ZM19.925 11.461L18.955 8.41901C20.3886 8.65267 21.7468 9.22175 22.9187 10.0799C24.0907 10.938 25.0433 12.0609 25.699 13.357H22.526C21.9484 13.3537 21.3865 13.1688 20.9197 12.8285C20.4529 12.4883 20.1049 12.0099 19.925 11.461ZM19.925 9.34501L20.277 10.447C21.467 10.932 22.526 11.726 23.363 12.695H24.509C23.4047 11.0912 21.7884 9.91004 19.925 9.34501ZM24.023 17.94L26.58 16.09L26.646 16.795L26.712 17.5C26.7132 18.7041 26.4763 19.8965 26.0148 21.0086C25.5533 22.1207 24.8764 23.1306 24.023 23.98L23.053 20.982C22.657 19.836 23.053 18.645 24.023 17.94ZM23.891 21.511L24.244 22.613C25.3961 21.1419 26.0174 19.3246 26.007 17.456V17.324L25.037 18.029C24.9591 19.2686 24.5645 20.4674 23.891 21.511ZM15.913 23.848C16.839 23.142 18.117 23.142 19.087 23.848L21.599 25.699C20.365 26.316 18.999 26.669 17.499 26.669C16.0761 26.6669 14.673 26.3349 13.4 25.699L15.913 23.848ZM15.693 24.818L14.723 25.523C15.604 25.831 16.53 25.963 17.5 26.008C18.4465 26.0047 19.3855 25.8407 20.277 25.523L19.307 24.817C18.7148 24.9579 18.1087 25.0317 17.5 25.037C16.8913 25.0317 16.2852 24.9579 15.693 24.817V24.818Z" fill="#D16527"/>
<path id="Vector_6" d="M46.56 9.2H57.096L59.664 11.792V17.672L57.072 20.288H49.824V26H46.56V9.2ZM55.608 17.552L56.448 16.712V12.776L55.608 11.936H49.824V17.552H55.608ZM75.276 20.432V26H72.012V21.176L70.572 19.568H65.34V26H62.076V9.2H72.612L75.18 11.792V16.88L73.548 18.536L75.276 20.432ZM65.34 16.88H71.124L71.964 16.04V12.776L71.124 11.936H65.34V16.88ZM78.03 23.24V11.96L80.79 9.2H89.43L92.19 11.96V23.24L89.43 26H80.79L78.03 23.24ZM87.703 23.216L88.927 21.992V13.208L87.703 11.984H82.519L81.295 13.208V21.992L82.519 23.216H87.703Z" fill="#EDEDED"/>
<path id="Vector_7" d="M95.076 9.2H98.1L103.092 20.048H103.14L108.156 9.2H111.18V26H108.036V15.776H107.988L104.124 23.648H102.108L98.268 15.776H98.22V26H95.076V9.2ZM114.054 23.24V11.96L116.814 9.2H125.454L128.214 11.96V23.24L125.454 26H116.814L114.054 23.24ZM123.726 23.216L124.95 21.992V13.208L123.726 11.984H118.542L117.318 13.208V21.992L118.542 23.216H123.726ZM134.564 11.96H129.548V9.2H142.844V11.96H137.828V26H134.564V11.96ZM144.172 23.24V11.96L146.932 9.2H155.572L158.332 11.96V23.24L155.572 26H146.932L144.172 23.24ZM153.844 23.216L155.068 21.992V13.208L153.844 11.984H148.66L147.436 13.208V21.992L148.66 23.216H153.844ZM174.416 20.432V26H171.152V21.176L169.712 19.568H164.48V26H161.216V9.2H171.752L174.32 11.792V16.88L172.688 18.536L174.416 20.432ZM164.48 16.88H170.264L171.104 16.04V12.776L170.264 11.936H164.48V16.88ZM177.052 23.408V21.008H180.268V22.424L181.06 23.216H186.028L186.844 22.4V19.616L186.052 18.824H179.692L177.1 16.232V11.792L179.692 9.2H187.276L189.868 11.792V14.216H186.652V12.776L185.86 11.984H181.108L180.316 12.776V15.248L181.108 16.04H187.468L190.06 18.632V23.36L187.42 26H179.644L177.052 23.408Z" fill="#D16527"/>
</g>
</g>
</g>
</g>
<defs>
<clipPath id="clip0_1_4">
<rect width="192" height="35" fill="white"/>
</clipPath>
</defs>
</svg>
